<mxfile host="app.diagrams.net" agent="Mozilla/5.0 (Windows NT 10.0; Win64; x64) AppleWebKit/537.36 (KHTML, like Gecko) Chrome/119.0.0.0 Safari/537.36" version="24.7.16">
  <diagram name="Página-1" id="7XJ9hTzHFrHWMSe2iyXX">
    <mxGraphModel dx="2320" dy="938" grid="1" gridSize="10" guides="1" tooltips="1" connect="1" arrows="1" fold="1" page="1" pageScale="1" pageWidth="827" pageHeight="1169" math="0" shadow="0">
      <root>
        <mxCell id="0" />
        <mxCell id="1" parent="0" />
        <mxCell id="F0A6EyyrNN_ELhWQXSzy-1" value="BANCO" style="whiteSpace=wrap;html=1;align=center;" parent="1" vertex="1">
          <mxGeometry x="314" y="250" width="100" height="40" as="geometry" />
        </mxCell>
        <mxCell id="F0A6EyyrNN_ELhWQXSzy-2" value="SwiftCode" style="ellipse;whiteSpace=wrap;html=1;align=center;fontStyle=4;" parent="1" vertex="1">
          <mxGeometry x="260" y="170" width="100" height="40" as="geometry" />
        </mxCell>
        <mxCell id="F0A6EyyrNN_ELhWQXSzy-3" value="Nome" style="ellipse;whiteSpace=wrap;html=1;align=center;" parent="1" vertex="1">
          <mxGeometry x="380" y="150" width="100" height="40" as="geometry" />
        </mxCell>
        <mxCell id="F0A6EyyrNN_ELhWQXSzy-4" value="Morada" style="ellipse;whiteSpace=wrap;html=1;align=center;" parent="1" vertex="1">
          <mxGeometry x="470" y="260" width="100" height="40" as="geometry" />
        </mxCell>
        <mxCell id="F0A6EyyrNN_ELhWQXSzy-5" value="" style="endArrow=none;html=1;rounded=0;" parent="1" source="F0A6EyyrNN_ELhWQXSzy-2" target="F0A6EyyrNN_ELhWQXSzy-1" edge="1">
          <mxGeometry relative="1" as="geometry">
            <mxPoint x="330" y="390" as="sourcePoint" />
            <mxPoint x="490" y="390" as="targetPoint" />
          </mxGeometry>
        </mxCell>
        <mxCell id="F0A6EyyrNN_ELhWQXSzy-6" value="" style="endArrow=none;html=1;rounded=0;" parent="1" source="F0A6EyyrNN_ELhWQXSzy-1" target="F0A6EyyrNN_ELhWQXSzy-3" edge="1">
          <mxGeometry relative="1" as="geometry">
            <mxPoint x="330" y="390" as="sourcePoint" />
            <mxPoint x="490" y="390" as="targetPoint" />
          </mxGeometry>
        </mxCell>
        <mxCell id="F0A6EyyrNN_ELhWQXSzy-7" value="" style="endArrow=none;html=1;rounded=0;" parent="1" source="F0A6EyyrNN_ELhWQXSzy-1" target="F0A6EyyrNN_ELhWQXSzy-4" edge="1">
          <mxGeometry relative="1" as="geometry">
            <mxPoint x="330" y="390" as="sourcePoint" />
            <mxPoint x="490" y="390" as="targetPoint" />
          </mxGeometry>
        </mxCell>
        <mxCell id="F0A6EyyrNN_ELhWQXSzy-8" value="CodPostal" style="ellipse;whiteSpace=wrap;html=1;align=center;" parent="1" vertex="1">
          <mxGeometry x="600" y="340" width="100" height="40" as="geometry" />
        </mxCell>
        <mxCell id="F0A6EyyrNN_ELhWQXSzy-9" value="Rua" style="ellipse;whiteSpace=wrap;html=1;align=center;" parent="1" vertex="1">
          <mxGeometry x="620" y="230" width="100" height="40" as="geometry" />
        </mxCell>
        <mxCell id="F0A6EyyrNN_ELhWQXSzy-10" value="NumPorta" style="ellipse;whiteSpace=wrap;html=1;align=center;" parent="1" vertex="1">
          <mxGeometry x="520" y="180" width="100" height="40" as="geometry" />
        </mxCell>
        <mxCell id="F0A6EyyrNN_ELhWQXSzy-11" value="Pais" style="ellipse;whiteSpace=wrap;html=1;align=center;" parent="1" vertex="1">
          <mxGeometry x="470" y="330" width="100" height="40" as="geometry" />
        </mxCell>
        <mxCell id="F0A6EyyrNN_ELhWQXSzy-12" value="Localidade" style="ellipse;whiteSpace=wrap;html=1;align=center;" parent="1" vertex="1">
          <mxGeometry x="620" y="290" width="100" height="40" as="geometry" />
        </mxCell>
        <mxCell id="F0A6EyyrNN_ELhWQXSzy-13" value="" style="endArrow=none;html=1;rounded=0;" parent="1" source="F0A6EyyrNN_ELhWQXSzy-11" target="F0A6EyyrNN_ELhWQXSzy-4" edge="1">
          <mxGeometry relative="1" as="geometry">
            <mxPoint x="330" y="390" as="sourcePoint" />
            <mxPoint x="490" y="390" as="targetPoint" />
          </mxGeometry>
        </mxCell>
        <mxCell id="F0A6EyyrNN_ELhWQXSzy-14" value="" style="endArrow=none;html=1;rounded=0;" parent="1" source="F0A6EyyrNN_ELhWQXSzy-8" target="F0A6EyyrNN_ELhWQXSzy-4" edge="1">
          <mxGeometry relative="1" as="geometry">
            <mxPoint x="330" y="390" as="sourcePoint" />
            <mxPoint x="490" y="390" as="targetPoint" />
          </mxGeometry>
        </mxCell>
        <mxCell id="F0A6EyyrNN_ELhWQXSzy-15" value="" style="endArrow=none;html=1;rounded=0;" parent="1" source="F0A6EyyrNN_ELhWQXSzy-12" target="F0A6EyyrNN_ELhWQXSzy-4" edge="1">
          <mxGeometry relative="1" as="geometry">
            <mxPoint x="330" y="390" as="sourcePoint" />
            <mxPoint x="490" y="390" as="targetPoint" />
          </mxGeometry>
        </mxCell>
        <mxCell id="F0A6EyyrNN_ELhWQXSzy-16" value="" style="endArrow=none;html=1;rounded=0;" parent="1" source="F0A6EyyrNN_ELhWQXSzy-4" target="F0A6EyyrNN_ELhWQXSzy-10" edge="1">
          <mxGeometry relative="1" as="geometry">
            <mxPoint x="330" y="390" as="sourcePoint" />
            <mxPoint x="490" y="390" as="targetPoint" />
          </mxGeometry>
        </mxCell>
        <mxCell id="F0A6EyyrNN_ELhWQXSzy-17" value="" style="endArrow=none;html=1;rounded=0;" parent="1" source="F0A6EyyrNN_ELhWQXSzy-4" target="F0A6EyyrNN_ELhWQXSzy-9" edge="1">
          <mxGeometry relative="1" as="geometry">
            <mxPoint x="330" y="390" as="sourcePoint" />
            <mxPoint x="490" y="390" as="targetPoint" />
          </mxGeometry>
        </mxCell>
        <mxCell id="F0A6EyyrNN_ELhWQXSzy-18" value="CapitalSocial" style="ellipse;whiteSpace=wrap;html=1;align=center;" parent="1" vertex="1">
          <mxGeometry x="314" y="340" width="100" height="40" as="geometry" />
        </mxCell>
        <mxCell id="F0A6EyyrNN_ELhWQXSzy-19" value="" style="endArrow=none;html=1;rounded=0;" parent="1" source="F0A6EyyrNN_ELhWQXSzy-18" target="F0A6EyyrNN_ELhWQXSzy-1" edge="1">
          <mxGeometry relative="1" as="geometry">
            <mxPoint x="330" y="390" as="sourcePoint" />
            <mxPoint x="490" y="390" as="targetPoint" />
          </mxGeometry>
        </mxCell>
        <mxCell id="F0A6EyyrNN_ELhWQXSzy-20" value="CLIENTE" style="whiteSpace=wrap;html=1;align=center;" parent="1" vertex="1">
          <mxGeometry x="-20" y="485" width="100" height="40" as="geometry" />
        </mxCell>
        <mxCell id="F0A6EyyrNN_ELhWQXSzy-21" value="NumCliente" style="ellipse;whiteSpace=wrap;html=1;align=center;fontStyle=4;" parent="1" vertex="1">
          <mxGeometry x="-60" y="400" width="100" height="40" as="geometry" />
        </mxCell>
        <mxCell id="F0A6EyyrNN_ELhWQXSzy-22" value="" style="endArrow=none;html=1;rounded=0;" parent="1" source="F0A6EyyrNN_ELhWQXSzy-21" target="F0A6EyyrNN_ELhWQXSzy-20" edge="1">
          <mxGeometry relative="1" as="geometry">
            <mxPoint x="10" y="310" as="sourcePoint" />
            <mxPoint x="170" y="310" as="targetPoint" />
          </mxGeometry>
        </mxCell>
        <mxCell id="F0A6EyyrNN_ELhWQXSzy-23" value="Nome" style="ellipse;whiteSpace=wrap;html=1;align=center;" parent="1" vertex="1">
          <mxGeometry x="50" y="400" width="100" height="40" as="geometry" />
        </mxCell>
        <mxCell id="F0A6EyyrNN_ELhWQXSzy-24" value="" style="endArrow=none;html=1;rounded=0;" parent="1" source="F0A6EyyrNN_ELhWQXSzy-20" target="F0A6EyyrNN_ELhWQXSzy-23" edge="1">
          <mxGeometry relative="1" as="geometry">
            <mxPoint x="10" y="310" as="sourcePoint" />
            <mxPoint x="170" y="310" as="targetPoint" />
          </mxGeometry>
        </mxCell>
        <mxCell id="F0A6EyyrNN_ELhWQXSzy-25" value="DataNascimento" style="ellipse;whiteSpace=wrap;html=1;align=center;" parent="1" vertex="1">
          <mxGeometry x="-160" y="485" width="100" height="40" as="geometry" />
        </mxCell>
        <mxCell id="F0A6EyyrNN_ELhWQXSzy-26" value="" style="endArrow=none;html=1;rounded=0;" parent="1" source="F0A6EyyrNN_ELhWQXSzy-25" target="F0A6EyyrNN_ELhWQXSzy-20" edge="1">
          <mxGeometry relative="1" as="geometry">
            <mxPoint x="10" y="310" as="sourcePoint" />
            <mxPoint x="170" y="310" as="targetPoint" />
          </mxGeometry>
        </mxCell>
        <mxCell id="F0A6EyyrNN_ELhWQXSzy-27" value="Género" style="ellipse;whiteSpace=wrap;html=1;align=center;" parent="1" vertex="1">
          <mxGeometry x="120" y="485" width="100" height="40" as="geometry" />
        </mxCell>
        <mxCell id="F0A6EyyrNN_ELhWQXSzy-28" value="" style="endArrow=none;html=1;rounded=0;" parent="1" source="F0A6EyyrNN_ELhWQXSzy-20" target="F0A6EyyrNN_ELhWQXSzy-27" edge="1">
          <mxGeometry relative="1" as="geometry">
            <mxPoint x="10" y="310" as="sourcePoint" />
            <mxPoint x="170" y="310" as="targetPoint" />
          </mxGeometry>
        </mxCell>
        <mxCell id="F0A6EyyrNN_ELhWQXSzy-29" value="VencimentoAnual" style="ellipse;whiteSpace=wrap;html=1;align=center;" parent="1" vertex="1">
          <mxGeometry x="-20" y="560" width="100" height="40" as="geometry" />
        </mxCell>
        <mxCell id="F0A6EyyrNN_ELhWQXSzy-30" value="" style="endArrow=none;html=1;rounded=0;" parent="1" source="F0A6EyyrNN_ELhWQXSzy-20" target="F0A6EyyrNN_ELhWQXSzy-29" edge="1">
          <mxGeometry relative="1" as="geometry">
            <mxPoint x="30" y="510" as="sourcePoint" />
            <mxPoint x="170" y="310" as="targetPoint" />
          </mxGeometry>
        </mxCell>
        <mxCell id="F0A6EyyrNN_ELhWQXSzy-31" value="CONTA" style="whiteSpace=wrap;html=1;align=center;" parent="1" vertex="1">
          <mxGeometry x="430" y="485" width="100" height="40" as="geometry" />
        </mxCell>
        <mxCell id="F0A6EyyrNN_ELhWQXSzy-32" value="NumConta" style="ellipse;whiteSpace=wrap;html=1;align=center;fontStyle=4;" parent="1" vertex="1">
          <mxGeometry x="390" y="400" width="100" height="40" as="geometry" />
        </mxCell>
        <mxCell id="F0A6EyyrNN_ELhWQXSzy-33" value="" style="endArrow=none;html=1;rounded=0;" parent="1" source="F0A6EyyrNN_ELhWQXSzy-32" target="F0A6EyyrNN_ELhWQXSzy-31" edge="1">
          <mxGeometry relative="1" as="geometry">
            <mxPoint x="460" y="310" as="sourcePoint" />
            <mxPoint x="620" y="310" as="targetPoint" />
          </mxGeometry>
        </mxCell>
        <mxCell id="F0A6EyyrNN_ELhWQXSzy-34" value="DataCriação" style="ellipse;whiteSpace=wrap;html=1;align=center;" parent="1" vertex="1">
          <mxGeometry x="500" y="400" width="100" height="40" as="geometry" />
        </mxCell>
        <mxCell id="F0A6EyyrNN_ELhWQXSzy-35" value="" style="endArrow=none;html=1;rounded=0;" parent="1" source="F0A6EyyrNN_ELhWQXSzy-31" target="F0A6EyyrNN_ELhWQXSzy-34" edge="1">
          <mxGeometry relative="1" as="geometry">
            <mxPoint x="460" y="310" as="sourcePoint" />
            <mxPoint x="620" y="310" as="targetPoint" />
          </mxGeometry>
        </mxCell>
        <mxCell id="F0A6EyyrNN_ELhWQXSzy-36" value="Saldo" style="ellipse;whiteSpace=wrap;html=1;align=center;" parent="1" vertex="1">
          <mxGeometry x="290" y="485" width="100" height="40" as="geometry" />
        </mxCell>
        <mxCell id="F0A6EyyrNN_ELhWQXSzy-37" value="" style="endArrow=none;html=1;rounded=0;" parent="1" source="F0A6EyyrNN_ELhWQXSzy-36" target="F0A6EyyrNN_ELhWQXSzy-31" edge="1">
          <mxGeometry relative="1" as="geometry">
            <mxPoint x="460" y="310" as="sourcePoint" />
            <mxPoint x="620" y="310" as="targetPoint" />
          </mxGeometry>
        </mxCell>
        <mxCell id="F0A6EyyrNN_ELhWQXSzy-38" value="NomeConta" style="ellipse;whiteSpace=wrap;html=1;align=center;" parent="1" vertex="1">
          <mxGeometry x="570" y="485" width="100" height="40" as="geometry" />
        </mxCell>
        <mxCell id="F0A6EyyrNN_ELhWQXSzy-39" value="" style="endArrow=none;html=1;rounded=0;" parent="1" source="F0A6EyyrNN_ELhWQXSzy-31" target="F0A6EyyrNN_ELhWQXSzy-38" edge="1">
          <mxGeometry relative="1" as="geometry">
            <mxPoint x="460" y="310" as="sourcePoint" />
            <mxPoint x="620" y="310" as="targetPoint" />
          </mxGeometry>
        </mxCell>
        <mxCell id="F0A6EyyrNN_ELhWQXSzy-42" value="MOVIMENTOS" style="whiteSpace=wrap;html=1;align=center;" parent="1" vertex="1">
          <mxGeometry x="-10" y="272.5" width="100" height="40" as="geometry" />
        </mxCell>
        <mxCell id="F0A6EyyrNN_ELhWQXSzy-43" value="NumMovimentos" style="ellipse;whiteSpace=wrap;html=1;align=center;fontStyle=4;" parent="1" vertex="1">
          <mxGeometry x="-50" y="187.5" width="100" height="40" as="geometry" />
        </mxCell>
        <mxCell id="F0A6EyyrNN_ELhWQXSzy-44" value="" style="endArrow=none;html=1;rounded=0;" parent="1" source="F0A6EyyrNN_ELhWQXSzy-43" target="F0A6EyyrNN_ELhWQXSzy-42" edge="1">
          <mxGeometry relative="1" as="geometry">
            <mxPoint x="20" y="97.5" as="sourcePoint" />
            <mxPoint x="180" y="97.5" as="targetPoint" />
          </mxGeometry>
        </mxCell>
        <mxCell id="F0A6EyyrNN_ELhWQXSzy-45" value="Data" style="ellipse;whiteSpace=wrap;html=1;align=center;" parent="1" vertex="1">
          <mxGeometry x="60" y="187.5" width="100" height="40" as="geometry" />
        </mxCell>
        <mxCell id="F0A6EyyrNN_ELhWQXSzy-46" value="" style="endArrow=none;html=1;rounded=0;" parent="1" source="F0A6EyyrNN_ELhWQXSzy-42" target="F0A6EyyrNN_ELhWQXSzy-45" edge="1">
          <mxGeometry relative="1" as="geometry">
            <mxPoint x="20" y="97.5" as="sourcePoint" />
            <mxPoint x="180" y="97.5" as="targetPoint" />
          </mxGeometry>
        </mxCell>
        <mxCell id="F0A6EyyrNN_ELhWQXSzy-47" value="Valor" style="ellipse;whiteSpace=wrap;html=1;align=center;" parent="1" vertex="1">
          <mxGeometry x="-150" y="272.5" width="100" height="40" as="geometry" />
        </mxCell>
        <mxCell id="F0A6EyyrNN_ELhWQXSzy-48" value="" style="endArrow=none;html=1;rounded=0;" parent="1" source="F0A6EyyrNN_ELhWQXSzy-47" target="F0A6EyyrNN_ELhWQXSzy-42" edge="1">
          <mxGeometry relative="1" as="geometry">
            <mxPoint x="20" y="97.5" as="sourcePoint" />
            <mxPoint x="180" y="97.5" as="targetPoint" />
          </mxGeometry>
        </mxCell>
        <mxCell id="F0A6EyyrNN_ELhWQXSzy-49" value="TipoMovimento" style="ellipse;whiteSpace=wrap;html=1;align=center;" parent="1" vertex="1">
          <mxGeometry x="130" y="272.5" width="100" height="40" as="geometry" />
        </mxCell>
        <mxCell id="F0A6EyyrNN_ELhWQXSzy-50" value="" style="endArrow=none;html=1;rounded=0;" parent="1" source="F0A6EyyrNN_ELhWQXSzy-42" target="F0A6EyyrNN_ELhWQXSzy-49" edge="1">
          <mxGeometry relative="1" as="geometry">
            <mxPoint x="20" y="97.5" as="sourcePoint" />
            <mxPoint x="180" y="97.5" as="targetPoint" />
          </mxGeometry>
        </mxCell>
        <mxCell id="F0A6EyyrNN_ELhWQXSzy-51" value="CLIENTE" style="whiteSpace=wrap;html=1;align=center;" parent="1" vertex="1">
          <mxGeometry x="80" y="670" width="100" height="40" as="geometry" />
        </mxCell>
        <mxCell id="F0A6EyyrNN_ELhWQXSzy-52" value="BANCO" style="whiteSpace=wrap;html=1;align=center;" parent="1" vertex="1">
          <mxGeometry x="500" y="670" width="100" height="40" as="geometry" />
        </mxCell>
        <mxCell id="F0A6EyyrNN_ELhWQXSzy-53" value="PERTENCE_A" style="shape=rhombus;perimeter=rhombusPerimeter;whiteSpace=wrap;html=1;align=center;" parent="1" vertex="1">
          <mxGeometry x="280" y="660" width="120" height="60" as="geometry" />
        </mxCell>
        <mxCell id="F0A6EyyrNN_ELhWQXSzy-54" style="edgeStyle=orthogonalEdgeStyle;rounded=0;orthogonalLoop=1;jettySize=auto;html=1;exitX=0.5;exitY=1;exitDx=0;exitDy=0;" parent="1" source="F0A6EyyrNN_ELhWQXSzy-52" target="F0A6EyyrNN_ELhWQXSzy-52" edge="1">
          <mxGeometry relative="1" as="geometry" />
        </mxCell>
        <mxCell id="F0A6EyyrNN_ELhWQXSzy-55" value="" style="shape=link;html=1;rounded=0;" parent="1" source="F0A6EyyrNN_ELhWQXSzy-53" target="F0A6EyyrNN_ELhWQXSzy-51" edge="1">
          <mxGeometry relative="1" as="geometry">
            <mxPoint x="230" y="790" as="sourcePoint" />
            <mxPoint x="310" y="690" as="targetPoint" />
          </mxGeometry>
        </mxCell>
        <mxCell id="F0A6EyyrNN_ELhWQXSzy-56" value="M" style="resizable=0;html=1;whiteSpace=wrap;align=right;verticalAlign=bottom;" parent="F0A6EyyrNN_ELhWQXSzy-55" connectable="0" vertex="1">
          <mxGeometry x="1" relative="1" as="geometry">
            <mxPoint x="20" as="offset" />
          </mxGeometry>
        </mxCell>
        <mxCell id="F0A6EyyrNN_ELhWQXSzy-57" value="" style="endArrow=none;html=1;rounded=0;" parent="1" source="F0A6EyyrNN_ELhWQXSzy-53" target="F0A6EyyrNN_ELhWQXSzy-52" edge="1">
          <mxGeometry relative="1" as="geometry">
            <mxPoint x="150" y="690" as="sourcePoint" />
            <mxPoint x="310" y="690" as="targetPoint" />
          </mxGeometry>
        </mxCell>
        <mxCell id="F0A6EyyrNN_ELhWQXSzy-58" value="N" style="resizable=0;html=1;whiteSpace=wrap;align=right;verticalAlign=bottom;" parent="F0A6EyyrNN_ELhWQXSzy-57" connectable="0" vertex="1">
          <mxGeometry x="1" relative="1" as="geometry" />
        </mxCell>
        <mxCell id="F0A6EyyrNN_ELhWQXSzy-59" value="CONTA_DE" style="shape=rhombus;perimeter=rhombusPerimeter;whiteSpace=wrap;html=1;align=center;" parent="1" vertex="1">
          <mxGeometry x="70" y="780" width="120" height="60" as="geometry" />
        </mxCell>
        <mxCell id="F0A6EyyrNN_ELhWQXSzy-60" value="CONTA" style="whiteSpace=wrap;html=1;align=center;" parent="1" vertex="1">
          <mxGeometry x="80" y="910" width="100" height="40" as="geometry" />
        </mxCell>
        <mxCell id="F0A6EyyrNN_ELhWQXSzy-61" value="" style="shape=link;html=1;rounded=0;" parent="1" source="F0A6EyyrNN_ELhWQXSzy-59" target="F0A6EyyrNN_ELhWQXSzy-60" edge="1">
          <mxGeometry relative="1" as="geometry">
            <mxPoint x="150" y="690" as="sourcePoint" />
            <mxPoint x="310" y="690" as="targetPoint" />
          </mxGeometry>
        </mxCell>
        <mxCell id="F0A6EyyrNN_ELhWQXSzy-62" value="N" style="resizable=0;html=1;whiteSpace=wrap;align=right;verticalAlign=bottom;" parent="F0A6EyyrNN_ELhWQXSzy-61" connectable="0" vertex="1">
          <mxGeometry x="1" relative="1" as="geometry" />
        </mxCell>
        <mxCell id="F0A6EyyrNN_ELhWQXSzy-63" value="" style="shape=link;html=1;rounded=0;" parent="1" source="F0A6EyyrNN_ELhWQXSzy-59" target="F0A6EyyrNN_ELhWQXSzy-51" edge="1">
          <mxGeometry relative="1" as="geometry">
            <mxPoint x="150" y="690" as="sourcePoint" />
            <mxPoint x="200" y="770" as="targetPoint" />
          </mxGeometry>
        </mxCell>
        <mxCell id="F0A6EyyrNN_ELhWQXSzy-64" value="M" style="resizable=0;html=1;whiteSpace=wrap;align=right;verticalAlign=bottom;" parent="F0A6EyyrNN_ELhWQXSzy-63" connectable="0" vertex="1">
          <mxGeometry x="1" relative="1" as="geometry">
            <mxPoint y="20" as="offset" />
          </mxGeometry>
        </mxCell>
        <mxCell id="F0A6EyyrNN_ELhWQXSzy-65" value="MOVIMENTOS_DE" style="shape=rhombus;perimeter=rhombusPerimeter;whiteSpace=wrap;html=1;align=center;" parent="1" vertex="1">
          <mxGeometry x="280" y="900" width="130" height="60" as="geometry" />
        </mxCell>
        <mxCell id="F0A6EyyrNN_ELhWQXSzy-66" value="MOVIMENTOS" style="whiteSpace=wrap;html=1;align=center;" parent="1" vertex="1">
          <mxGeometry x="500" y="910" width="100" height="40" as="geometry" />
        </mxCell>
        <mxCell id="F0A6EyyrNN_ELhWQXSzy-69" value="" style="shape=link;html=1;rounded=0;" parent="1" source="F0A6EyyrNN_ELhWQXSzy-65" target="F0A6EyyrNN_ELhWQXSzy-66" edge="1">
          <mxGeometry relative="1" as="geometry">
            <mxPoint x="150" y="690" as="sourcePoint" />
            <mxPoint x="310" y="690" as="targetPoint" />
          </mxGeometry>
        </mxCell>
        <mxCell id="F0A6EyyrNN_ELhWQXSzy-70" value="N" style="resizable=0;html=1;whiteSpace=wrap;align=right;verticalAlign=bottom;" parent="F0A6EyyrNN_ELhWQXSzy-69" connectable="0" vertex="1">
          <mxGeometry x="1" relative="1" as="geometry" />
        </mxCell>
        <mxCell id="F0A6EyyrNN_ELhWQXSzy-71" value="" style="endArrow=none;html=1;rounded=0;" parent="1" source="F0A6EyyrNN_ELhWQXSzy-65" target="F0A6EyyrNN_ELhWQXSzy-60" edge="1">
          <mxGeometry relative="1" as="geometry">
            <mxPoint x="150" y="690" as="sourcePoint" />
            <mxPoint x="310" y="690" as="targetPoint" />
          </mxGeometry>
        </mxCell>
        <mxCell id="F0A6EyyrNN_ELhWQXSzy-72" value="1" style="resizable=0;html=1;whiteSpace=wrap;align=right;verticalAlign=bottom;" parent="F0A6EyyrNN_ELhWQXSzy-71" connectable="0" vertex="1">
          <mxGeometry x="1" relative="1" as="geometry">
            <mxPoint x="20" as="offset" />
          </mxGeometry>
        </mxCell>
      </root>
    </mxGraphModel>
  </diagram>
</mxfile>
